# xmcd
#
# Track frame offsets: 
#        150
#        15155
#        37785
#        50655
#        78885
#        92850
#        109895
#        127080
#        135905
#        151205
#        171548
#        191893
#        204175
#        220675
#        240925
#        256335
#
# Disc length: 3561 seconds
#
# Revision: 2
# Processed by: cddbd v1.5.2PL0 Copyright (c) Steve Scherf et al.
# Submitted via: ExactAudioCopy v1.0b3
#
DISCID=ca0de710
DTITLE=Brownie McGhee, Sonny Terry with Earl Hooker - I Couldn't Belie
DTITLE=ve My Eyes plus...
DYEAR=1973
DGENRE=Blues
TTITLE0=Black Cat Bone
TTITLE1=Brownie's New Blues
TTITLE2=Poor Man Blues
TTITLE3=Tell Me Why
TTITLE4=My Baby's So Fine
TTITLE5=You Just Usin' Me For A Convenience
TTITLE6=Hole In The Wall
TTITLE7=Long Way From Home
TTITLE8=Don't Wait For Me
TTITLE9=I'm In Love With You Baby
TTITLE10=Parcel Post Blues
TTITLE11=When I Was Drinkin'
TTITLE12=I Couldn't Believe My Eyes
TTITLE13=Life Is A Gamble
TTITLE14=Don't Mistreat Me
TTITLE15=Rock Island Line
EXTD=YEAR: 1973 ID3G:   0
EXTT0=
EXTT1=
EXTT2=
EXTT3=
EXTT4=
EXTT5=
EXTT6=
EXTT7=
EXTT8=
EXTT9=
EXTT10=
EXTT11=
EXTT12=
EXTT13=
EXTT14=
EXTT15=
PLAYORDER=
